<mxfile host="app.diagrams.net" modified="2023-08-28T11:38:41.424Z" agent="Mozilla/5.0 (Windows NT 10.0; Win64; x64) AppleWebKit/537.36 (KHTML, like Gecko) Chrome/116.0.0.0 Safari/537.36" version="21.6.9" etag="rPHQPc3vsefIHk4BEjxr" type="github">
  <diagram name="第 1 页" id="Y4_m2_IpHZJtx5OJvoJP">
    <mxGraphModel>
      <root>
        <mxCell id="0" />
        <mxCell id="1" parent="0" />
      </root>
    </mxGraphModel>
  </diagram>
</mxfile>
